<?xml version="1.0" encoding="UTF-8" standalone="no"?>
<svg
   data-name="Layer 1"
   width="732.85335"
   height="614.57198"
   viewBox="0 0 732.85335 614.57198"
   version="1.1"
   id="svg237"
   sodipodi:docname="undraw_next_tasks_re_5eyy.svg"
   inkscape:version="1.1.2 (0a00cf5339, 2022-02-04)"
   xmlns:inkscape="http://www.inkscape.org/namespaces/inkscape"
   xmlns:sodipodi="http://sodipodi.sourceforge.net/DTD/sodipodi-0.dtd"
   xmlns="http://www.w3.org/2000/svg"
   xmlns:svg="http://www.w3.org/2000/svg">
  <defs
     id="defs241" />
  <sodipodi:namedview
     id="namedview239"
     pagecolor="#ffffff"
     bordercolor="#666666"
     borderopacity="1.0"
     inkscape:pageshadow="2"
     inkscape:pageopacity="0.0"
     inkscape:pagecheckerboard="0"
     showgrid="false"
     inkscape:zoom="0.6541138"
     inkscape:cx="471.63047"
     inkscape:cy="195.6846"
     inkscape:window-width="1850"
     inkscape:window-height="1016"
     inkscape:window-x="70"
     inkscape:window-y="27"
     inkscape:window-maximized="1"
     inkscape:current-layer="svg237" />
  <polygon
     points="486.765,93.962 323.429,233.671 322.091,232.107 486.005,91.904 "
     fill="#2f2e41"
     id="polygon149"
     transform="translate(-3.5165672,10.428665)" />
  <circle
     cx="496.42993"
     cy="110.04115"
     r="24.022249"
     fill="#6c63ff"
     id="circle151"
     style="fill:#3c0275;fill-opacity:1" />
  <path
     d="M 698.89944,163.23473 H 479.5614 a 7.15334,7.15334 0 1 1 0,-14.30667 h 219.33804 a 7.15334,7.15334 0 1 1 0,14.30667 z"
     fill="#6c63ff"
     id="path153"
     style="fill:#3c0275;fill-opacity:1" />
  <path
     d="M 698.89944,191.50114 H 479.5614 a 7.15369,7.15369 0 1 1 0,-14.30738 h 219.33804 a 7.15369,7.15369 0 1 1 0,14.30738 z"
     fill="#6c63ff"
     id="path155"
     style="fill:#3c0275;fill-opacity:1" />
  <path
     d="M 574.63914,219.76755 H 479.5614 a 7.15369,7.15369 0 0 1 0,-14.30738 h 95.07774 a 7.15369,7.15369 0 0 1 0,14.30738 z"
     fill="#6c63ff"
     id="path157"
     style="fill:#3c0275;fill-opacity:1" />
  <path
     d="m 53.979205,460.60784 c -5.69055,21.82177 -3.72984,44.83679 5.90511,64.42 a 40.428,40.428 0 0 0 8.1528,11.69 27.28818,27.28818 0 0 0 12.913,6.60571 c 4.61807,1.09339 9.52841,1.72248 13.67447,3.824 a 14.41552,14.41552 0 0 1 7.768365,10.535 c 1.01441,5.471 -0.27212,11.10462 -1.74188,16.59052 -1.631865,6.091 -3.433255,12.40246 -1.927365,18.43872 0.18247,0.73138 -1.12756,1.03595 -1.30975,0.30566 -2.62,-10.50207 4.267485,-21.12121 4.004445,-31.7453 -0.12274,-4.9574 -1.928995,-9.78827 -6.532405,-12.53546 -4.02545,-2.40234 -9.08807,-3.055 -13.778,-4.12506 a 29.57157,29.57157 0 0 1 -12.93561,-6.01782 37.74519,37.74519 0 0 1 -8.654,-11.3291 88.27731,88.27731 0 0 1 -9.30014,-30.29853 97.48328,97.48328 0 0 1 2.51119,-36.67364 c 0.19656,-0.75379 1.445,-0.4336 1.24975,0.31531 z"
     fill="#ffffff"
     id="path185" />
  <path
     d="m 78.501015,543.05132 a 28.74725,28.74725 0 0 0 4.06134,-22.29065 c -0.17951,-0.73212 1.13049,-1.03693 1.30975,-0.30567 a 29.92178,29.92178 0 0 1 -4.2785,23.19165 c -0.44013,0.68738 -1.53034,0.0883 -1.09259,-0.59533 z"
     fill="#ffffff"
     id="path189" />
  <path
     d="m 50.395865,485.2141 a 11.29458,11.29458 0 0 0 8.18139,-5.03729 c 0.43058,-0.69135 1.52039,-0.0914 1.09261,0.59533 a 12.656,12.656 0 0 1 -9.03859,5.58954 c -0.36171,0.0435 -0.69923,-0.0839 -0.77258,-0.421 a 0.65808,0.65808 0 0 1 0.53717,-0.72662 z"
     fill="#ffffff"
     id="path191" />
  <path
     d="m 114.72833,183.63173 34.77137,36.92163 80.9317,29.66626 9.7253,-18.067 -62.2799,-33.11708 c 0,0 -28.0786,-29.33591 -44.7364,-35.37872 z"
     fill="#a0616a"
     id="path193" />
  <circle
     cx="238.83113"
     cy="242.84105"
     r="12"
     fill="#a0616a"
     id="circle195" />
  <path
     d="m 141.7101,165.70891 -24.85292,21.944 -0.117,0.03 c -11.55484,2.9498 -28.243525,-10.67893 -40.208455,-22.63156 a 22.004,22.004 0 0 1 -1.01337,-30.02384 v 0 a 22.0526,22.0526 0 0 1 22.30484,-6.666 l 20.200495,5.57272 z"
     fill="#3f3d56"
     id="path197" />
  <polygon
     points="226.862,531.074 201.583,531.075 201.586,597.14 218.714,597.139 "
     fill="#a0616a"
     id="polygon199"
     transform="translate(-32.081085,4.4329563)" />
  <path
     d="m 165.1353,595.98076 4.821,-1.8e-4 18.8221,-7.65448 10.0881,7.65332 v 0 a 21.49726,21.49726 0 0 1 21.4961,21.49585 v 0.69855 l -55.2277,0.002 z"
     fill="#2f2e41"
     id="path201"
     style="fill:#000000" />
  <polygon
     points="150.862,531.074 125.583,531.075 125.586,597.14 142.714,597.139 "
     fill="#a0616a"
     id="polygon203"
     transform="translate(-32.081085,4.4329563)" />
  <path
     d="m 89.135315,595.98076 4.821,-1.8e-4 18.822105,-7.65448 10.08807,7.65332 h 0.001 a 21.49726,21.49726 0 0 1 21.49613,21.49585 v 0.69855 l -55.227665,0.002 z"
     fill="#2f2e41"
     id="path205"
     style="fill:#000000" />
  <path
     d="m 67.387665,317.00691 c 0,0 -2,24 3,47 5,23 5,87.77561 5,87.77561 l 11,126.22443 32.999995,-3 9,-211 32.00004,71 -3,10 3.996,2.5 c 0,0 -2.996,19.5 -0.996,19.5 2,0 7,3 7,3 l -4,103 34,-1 12,-145 -13,-83 -1,-16 -4.5,0.185 -2.2914,-6.685 -4.2086,-11.5 z"
     fill="#2f2e41"
     id="path207"
     style="fill:#005575;fill-opacity:1" />
  <path
     d="m 65.659205,322.04793 -0.17822,-0.25 c -9.51856,-13.32617 4.79736,-45.34863 6.95654,-49.99072 l -9.09424,-2.95117 2.04785,-17.40772 0.97022,-7.76074 -6.95069,-6.95068 -0.0195,-0.17334 -4,-35 -5.81593,-23.24665 c -4.46174,-17.89311 1.0761,-36.80149 14.48584,-49.46045 l 13.44336,-12.67529 16.33789,-24.174256 H 120.189 l 9.0337,17.063476 c 18.0737,4.17723 30.0491,20.17283 29.1834,38.70275 l -1.5189,45.25669 8.0152,55.72071 0.01,10.084 9.02,10.02441 -1.9698,9.84815 6.8648,2.94189 3.0312,14.14454 c 1.2544,1.65527 9.5342,12.69531 9.5342,15.71337 0,0.45313 -0.3345,0.89112 -1.0522,1.377 -5.6426,3.8208 -36.8301,11.61035 -50.6333,6.08691 -14.70316,-5.8789 -73.150415,2.94043 -73.739285,3.03028 z"
     fill="#3f3d56"
     id="path209"
     sodipodi:nodetypes="cccccccccccccccccccccccscccc"
     style="fill:#235f75;fill-opacity:1" />
  <circle
     cx="110.41908"
     cy="49.310322"
     r="34.892872"
     fill="#a0616a"
     id="circle213" />
  <path
     d="m 113.76175,84.768114 a 94.8982,94.8982 0 0 1 -16.108885,-1.54443 c -5.26269,-1.2124 -16.874,-10.190918 -20.03857,-15.495118 v 0 c -2.35108,-3.94091 -3.76221,-10.03663 -4.53223,-14.45605 a 42.42143,42.42143 0 0 1 8.2861,-33.4746 13.40241,13.40241 0 0 1 5.53076,-4.479 c 0.19581,-0.0708 0.397,-0.13281 0.6001,-0.18506 a 16.536,16.536 0 0 0 8.35449,-4.876 13.63907,13.63907 0 0 1 1.40332,-1.3715897 20.3685,20.3685 0 0 1 8.605465,-4.04638 c 5.085,-1.22119 12.35889,0.30909 21.61914,4.55224 4.65236,2.1318397 9.81596,1.5371097 13.79586,0.7807597 a 1.29551,1.29551 0 0 1 1.2085,0.44922 9.14508,9.14508 0 0 0 6.1495,2.63721 c 1.413,0.09863 2.8466,2.0957 4.5747,4.69629 0.3921,0.59033 0.8496,1.2793 1.1816,1.69971 l 0.066,-0.78955 0.7774,0.90283 a 11.09724,11.09724 0 0 1 -5.4751,17.94433 21.64051,21.64051 0 0 1 -4.3692,0.58106 c -0.8926,0.05713 -1.8159,0.11622 -2.7026,0.2466 a 16.731,16.731 0 0 0 -12.70902,10.53271 4.37552,4.37552 0 0 1 -6.65674,1.95313 7.22919,7.22919 0 0 0 -6.5542,-1.36915 4.799,4.799 0 0 0 -2.18261,2.35059 6.25413,6.25413 0 0 1 -2.44385,2.70654 c -3.63281,1.75585 -4.09131,9.938 -2.98,16.79737 1.07129,6.61181 3.40185,11.435058 5.66748,11.728998 1.74414,0.22607 1.94092,0.35547 2.05957,0.668 l 0.106,0.27979 -0.20313,0.2539 c -0.19773,0.22652 -1.35301,0.32565 -3.03025,0.32565 z"
     fill="#2f2e41"
     id="path215"
     style="fill:#000000" />
  <circle
     cx="284.93491"
     cy="287.52271"
     r="61.78912"
     fill="#6c63ff"
     id="circle217"
     style="fill:#3c0275;fill-opacity:1" />
  <path
     d="m 279.5406,311.74028 c -0.1334,0 -0.2685,-0.003 -0.4035,-0.01 a 8.22978,8.22978 0 0 1 -6.0991,-3.17011 l -9.7385,-12.51962 a 8.245,8.245 0 0 1 1.4435,-11.55829 l 0.3489,-0.27166 a 8.2497,8.2497 0 0 1 11.5615,1.442 4.94015,4.94015 0 0 0 3.662,1.90335 4.84582,4.84582 0 0 0 3.8308,-1.53683 l 19.7729,-20.87244 a 8.24663,8.24663 0 0 1 11.6435,-0.31509 l 0.3215,0.30383 a 8.24589,8.24589 0 0 1 0.3167,11.64511 l -30.6834,32.38736 a 8.22274,8.22274 0 0 1 -5.9768,2.57203 z"
     fill="#fff"
     id="path219"
     style="fill:#00ff00" />
  <path
     d="m 121.79864,184.91475 24.23936,44.55008 70.7272,49.27155 14,-15 -51.8111,-47.86591 c 0,0 -19.6956,-35.51175 -34.2692,-45.59193 z"
     fill="#a0616a"
     id="path221" />
  <circle
     cx="226.76521"
     cy="273.73636"
     r="12"
     fill="#a0616a"
     id="circle223" />
  <path
     d="m 123.9805,190.85354 -15.24268,-36.583 5.51319,-20.2168 a 22.05492,22.05492 0 0 1 17.11379,-15.7822 v 0 a 22.0029,22.0029 0 0 1 25.3052,16.19 c 4.1748,16.38965 7.3808,37.69629 -1.0513,46.12842 l -0.085,0.0855 z"
     fill="#3f3d56"
     id="path225"
     style="fill:#235f75;fill-opacity:1" />
  <path
     d="m 492.50901,123.62386 c -0.0549,0 -0.11044,-10e-4 -0.166,-0.004 a 3.3857,3.3857 0 0 1 -2.50913,-1.30417 l -4.0064,-5.15044 a 3.392,3.392 0 0 1 0.59388,-4.755 l 0.14352,-0.11176 a 3.39389,3.39389 0 0 1 4.75636,0.59322 2.03234,2.03234 0 0 0 1.50652,0.783 1.99357,1.99357 0 0 0 1.576,-0.63224 l 8.13448,-8.58684 a 3.39264,3.39264 0 0 1 4.79009,-0.12962 l 0.13226,0.125 a 3.39232,3.39232 0 0 1 0.13028,4.79075 l -12.623,13.324 a 3.38276,3.38276 0 0 1 -2.45886,1.0581 z"
     fill="#ffffff"
     id="path227" />
</svg>
